<svg width="18" height="33" viewBox="0 0 18 33" fill="none" xmlns="http://www.w3.org/2000/svg">
<path fill-rule="evenodd" clip-rule="evenodd" d="M1.85356 1.14646C1.6583 0.9512 1.34172 0.9512 1.14645 1.14646C0.951192 1.34172 0.951192 1.65831 1.14645 1.85357L15.7929 16.5L1.14645 31.1465C0.951192 31.3417 0.951192 31.6583 1.14645 31.8536C1.34172 32.0488 1.6583 32.0488 1.85356 31.8536L16.8536 16.8536C17.0488 16.6583 17.0488 16.3417 16.8536 16.1465L1.85356 1.14646Z" fill="white"/>
<path d="M1.14645 1.14646L0.439348 0.439355L0.439347 0.439355L1.14645 1.14646ZM1.85356 1.14646L2.56067 0.439355L2.56067 0.439355L1.85356 1.14646ZM1.14645 1.85357L0.439347 2.56068L0.439347 2.56068L1.14645 1.85357ZM15.7929 16.5L16.5 17.2071L17.2071 16.5L16.5 15.7929L15.7929 16.5ZM1.14645 31.1465L0.439348 30.4394L0.439346 30.4394L1.14645 31.1465ZM1.14645 31.8536L0.439346 32.5607L0.43935 32.5607L1.14645 31.8536ZM1.85356 31.8536L2.56067 32.5607L2.56067 32.5607L1.85356 31.8536ZM16.8536 16.8536L16.1465 16.1465L16.8536 16.8536ZM16.8536 16.1465L16.1465 16.8536L16.8536 16.1465ZM1.85356 1.85357C1.6583 2.04883 1.34172 2.04883 1.14645 1.85357L2.56067 0.439355C1.97488 -0.146431 1.02513 -0.146431 0.439348 0.439355L1.85356 1.85357ZM1.85356 1.14646C2.04882 1.34172 2.04882 1.65831 1.85356 1.85357L0.439347 0.439355C-0.146439 1.02514 -0.146439 1.97489 0.439347 2.56068L1.85356 1.14646ZM16.5 15.7929L1.85356 1.14646L0.439347 2.56068L15.0858 17.2071L16.5 15.7929ZM1.85356 31.8536L16.5 17.2071L15.0858 15.7929L0.439348 30.4394L1.85356 31.8536ZM1.85356 31.1465C2.04882 31.3417 2.04882 31.6583 1.85356 31.8536L0.439346 30.4394C-0.146438 31.0251 -0.146438 31.9749 0.439346 32.5607L1.85356 31.1465ZM1.14646 31.1465C1.34172 30.9512 1.6583 30.9512 1.85356 31.1465L0.43935 32.5607C1.02514 33.1465 1.97488 33.1465 2.56067 32.5607L1.14646 31.1465ZM16.1465 16.1465L1.14645 31.1465L2.56067 32.5607L17.5607 17.5607L16.1465 16.1465ZM16.1465 16.8536C15.9512 16.6583 15.9512 16.3417 16.1465 16.1465L17.5607 17.5607C18.1465 16.9749 18.1465 16.0251 17.5607 15.4394L16.1465 16.8536ZM1.14645 1.85357L16.1465 16.8536L17.5607 15.4394L2.56067 0.439355L1.14645 1.85357Z" fill="white"/>
</svg>
