<svg width="176" height="98" viewBox="0 0 176 98" fill="none" xmlns="http://www.w3.org/2000/svg">
<mask id="mask0_50_2461" style="mask-type:alpha" maskUnits="userSpaceOnUse" x="0" y="0" width="75" height="85">
<path d="M40.768 3.07422L36.2072 14.121C35.0553 16.5859 38.887 18.1721 39.8211 15.6119L44.3891 4.56365C45.5624 1.73858 41.6395 0.968232 40.768 3.07422Z" fill="black"/>
<mask id="mask1_50_2461" style="mask-type:luminance" maskUnits="userSpaceOnUse" x="26" y="0" width="5" height="16">
<path d="M26.6241 0H30.9984V15.817H26.6241V0Z" fill="white"/>
</mask>
<g mask="url(#mask1_50_2461)">
<path d="M28.7999 -0.0113695C27.722 0.00856532 26.8576 0.89852 26.8705 1.9807L26.8648 13.5914C26.7879 14.7234 27.6878 15.6817 28.8198 15.6817C29.9504 15.6817 30.8489 14.7234 30.7734 13.5914L30.7791 1.9807C30.8019 0.877161 29.9034 -0.0256089 28.7999 -0.0113695Z" fill="black"/>
</g>
<path d="M52.215 10.8959L44.026 19.112C42.1791 20.9602 44.9572 23.7184 46.8026 21.873L54.9931 13.6541C57.0236 11.6207 53.9579 9.14449 52.215 10.8959Z" fill="black"/>
<path d="M15.3424 14.7861C19.8207 20.3864 20.4913 23.6643 20.5938 34.909C20.6565 35.6281 21.3556 36.1151 22.0491 35.9215L68.3054 24.6468C70.8072 24.0359 73.413 25.625 74.0182 27.7766C74.5735 29.7786 73.7989 32.0598 70.6093 32.9867L31.1081 44.3739C28.6604 45.0317 26.8292 47.1036 26.2725 49.7079C25.7257 52.2881 26.4448 54.9665 28.2147 56.9244C29.0918 57.8955 30.1769 58.6089 31.3431 58.9962C30.5329 59.916 29.9433 61.0637 29.6756 62.3481C29.1203 64.9254 29.8408 67.6166 31.6108 69.5788C32.4537 70.5158 33.4903 71.1921 34.6053 71.5908C33.9417 72.3612 33.4533 73.3067 33.2269 74.3632C32.7414 76.5746 33.2896 78.9539 34.8943 80.5573C35.4155 81.077 35.4297 81.5711 34.4786 81.826L31.6635 82.585C24.7289 84.4546 18.1447 85.7689 12.5971 83.2215C6.67923 80.5089 2.35761 73.9702 0.429613 66.5629C-0.591343 59.0845 0.264437 51.3013 2.39178 45.0972L7.06938 31.4574C8.78379 26.4666 7.96788 23.287 5.79924 17.5357C2.94142 9.94476 12.6597 11.437 15.3424 14.7861Z" fill="black"/>
<path d="M52.7517 43.5892C54.0275 44.9861 54.7324 47.1021 54.1714 48.9048C53.5334 50.9922 52.3929 52.1157 50.5759 52.6027L34.4799 56.9158C32.9278 57.3244 31.2006 56.7919 29.9376 55.3822C28.656 53.9625 28.142 52.0531 28.5378 50.1834C28.9365 48.3352 30.1568 47.0209 31.7061 46.5966L48.1054 42.097C49.8497 41.6171 51.735 42.4829 52.7517 43.5892Z" fill="black"/>
<path d="M56.1464 56.2423C57.4222 57.642 57.9619 59.701 57.5703 61.5493C56.7829 63.6239 55.7335 64.7203 53.9236 65.2671L37.8746 69.556C36.3225 69.9718 34.6038 69.4435 33.3322 68.0409C32.0507 66.6241 31.5424 64.6933 31.9411 62.8237C32.3312 60.9754 33.5544 59.6739 35.1008 59.2496L51.6183 54.7173C53.3071 54.2502 55.1838 55.19 56.1464 56.2423Z" fill="black"/>
<path d="M56.3443 68.6575C57.5091 69.8066 57.9149 71.6919 57.5903 73.2938C57.2827 74.7989 56.3842 75.9537 55.1909 76.2727C50.2044 77.5798 40.2397 80.2013 40.2397 80.2013C38.9895 80.5288 37.6268 80.123 36.603 79.0094C35.5692 77.8746 35.1492 76.3467 35.4781 74.8445C35.7985 73.3764 36.7952 72.3284 38.0369 71.9966L53.2672 67.8273C54.7666 67.4173 55.4871 67.8103 56.3443 68.6575Z" fill="black"/>
</mask>
<g mask="url(#mask0_50_2461)">
<path d="M74.0693 17.1623C74.0693 39.2789 52.9535 43.5584 54.197 67.4451C55.4406 91.3318 -11.4808 41.5455 -11.4808 19.4289C-11.4808 -2.68768 11.9071 -22.8833 34.0237 -22.8833C56.1403 -22.8833 74.0693 -4.95427 74.0693 17.1623Z" fill="#1881F5"/>
<path d="M37.5861 70.7571C37.5861 90.4669 15.5539 90.9305 -4.56718 90.9305C-24.6883 90.9305 -40.9996 75.2931 -40.9996 56.0035C-40.9996 36.7139 15.4542 16.5016 9.03284 36.2084C2.61145 55.9153 37.5861 51.0474 37.5861 70.7571Z" fill="#A989F5"/>
<path d="M100.265 56.0035C100.265 78.1201 71.195 122.244 49.0784 122.244C26.9619 122.244 9.03283 104.315 9.03283 82.1987C9.03283 60.0822 21.0882 72.8686 27.5559 58.6406C34.0237 44.4125 100.265 33.8869 100.265 56.0035Z" fill="#6E60D8"/>
<path d="M110.803 24.6897C110.803 38.658 90.9049 70.1549 75.2737 70.1549C59.6424 70.1549 49.0784 37.5798 63.2026 29.893C77.3267 22.2062 66.8687 -0.602303 82.4999 -0.602303C98.1312 -0.602303 110.803 10.7213 110.803 24.6897Z" fill="#A989F5"/>
</g>
<path d="M75.288 82.276C74.7053 82.3067 74.2607 82.1533 73.954 81.816C73.6167 81.4787 73.448 81.0647 73.448 80.574C73.448 80.206 73.5707 79.8687 73.816 79.562C74.0307 79.2553 74.3833 79.0867 74.874 79.056L76.3 78.964C77.864 78.8413 79.06 78.3047 79.888 77.354C80.716 76.3727 81.13 75.0387 81.13 73.352V51.18C81.13 50.536 81.2833 50.0607 81.59 49.754C81.9273 49.4167 82.4027 49.248 83.016 49.248C83.6293 49.248 84.0893 49.4167 84.396 49.754C84.7333 50.0607 84.902 50.536 84.902 51.18V73.398C84.902 75.146 84.5953 76.664 83.982 77.952C83.3687 79.2093 82.4487 80.1907 81.222 80.896C80.026 81.6013 78.554 82.0153 76.806 82.138L75.288 82.276ZM102.484 82.414C100.123 82.414 98.0834 81.954 96.3661 81.034C94.6794 80.0833 93.3607 78.7493 92.4101 77.032C91.4901 75.3147 91.0301 73.26 91.0301 70.868C91.0301 68.5373 91.4901 66.5133 92.4101 64.796C93.3301 63.048 94.5874 61.6833 96.1821 60.702C97.8074 59.7207 99.6781 59.23 101.794 59.23C103.297 59.23 104.646 59.4907 105.842 60.012C107.038 60.5027 108.05 61.2233 108.878 62.174C109.737 63.1247 110.381 64.2747 110.81 65.624C111.27 66.9733 111.5 68.4913 111.5 70.178C111.5 70.6687 111.362 71.0367 111.086 71.282C110.81 71.4967 110.411 71.604 109.89 71.604H93.8821V69.166H109.016L108.28 69.764C108.28 68.108 108.035 66.7127 107.544 65.578C107.053 64.4127 106.333 63.5233 105.382 62.91C104.462 62.2967 103.297 61.99 101.886 61.99C100.322 61.99 98.9881 62.358 97.8841 63.094C96.8107 63.7993 95.9981 64.796 95.4461 66.084C94.8941 67.3413 94.6181 68.8133 94.6181 70.5V70.776C94.6181 73.5973 95.2927 75.744 96.6421 77.216C98.0221 78.688 99.9694 79.424 102.484 79.424C103.527 79.424 104.554 79.286 105.566 79.01C106.609 78.734 107.621 78.274 108.602 77.63C109.031 77.354 109.415 77.2313 109.752 77.262C110.12 77.262 110.411 77.3693 110.626 77.584C110.841 77.768 110.979 78.0133 111.04 78.32C111.132 78.596 111.101 78.9027 110.948 79.24C110.825 79.5773 110.565 79.8687 110.166 80.114C109.154 80.85 107.958 81.4173 106.578 81.816C105.198 82.2147 103.833 82.414 102.484 82.414ZM124.436 82.414C123.056 82.414 121.661 82.2453 120.25 81.908C118.87 81.5707 117.582 80.988 116.386 80.16C116.08 79.9453 115.865 79.7 115.742 79.424C115.62 79.1173 115.574 78.826 115.604 78.55C115.666 78.2433 115.788 77.9827 115.972 77.768C116.187 77.5533 116.432 77.4307 116.708 77.4C117.015 77.3387 117.352 77.4 117.72 77.584C118.916 78.32 120.066 78.8413 121.17 79.148C122.305 79.424 123.424 79.562 124.528 79.562C126.276 79.562 127.595 79.24 128.484 78.596C129.374 77.952 129.818 77.078 129.818 75.974C129.818 75.1153 129.527 74.4407 128.944 73.95C128.362 73.4287 127.442 73.03 126.184 72.754L121.998 71.834C120.066 71.4353 118.625 70.7453 117.674 69.764C116.754 68.7827 116.294 67.51 116.294 65.946C116.294 64.566 116.647 63.3853 117.352 62.404C118.088 61.392 119.116 60.61 120.434 60.058C121.753 59.506 123.286 59.23 125.034 59.23C126.384 59.23 127.656 59.414 128.852 59.782C130.079 60.1193 131.183 60.6713 132.164 61.438C132.471 61.6527 132.67 61.9133 132.762 62.22C132.885 62.496 132.9 62.7873 132.808 63.094C132.747 63.37 132.609 63.6153 132.394 63.83C132.18 64.014 131.919 64.1213 131.612 64.152C131.306 64.1827 130.984 64.0907 130.646 63.876C129.726 63.2627 128.791 62.818 127.84 62.542C126.89 62.2353 125.954 62.082 125.034 62.082C123.317 62.082 122.014 62.4193 121.124 63.094C120.235 63.7687 119.79 64.658 119.79 65.762C119.79 66.6207 120.066 67.326 120.618 67.878C121.17 68.43 122.029 68.8287 123.194 69.074L127.38 69.948C129.374 70.3773 130.861 71.0673 131.842 72.018C132.854 72.938 133.36 74.1953 133.36 75.79C133.36 77.814 132.548 79.424 130.922 80.62C129.297 81.816 127.135 82.414 124.436 82.414ZM147.784 82.414C146.036 82.414 144.564 82.1073 143.368 81.494C142.203 80.85 141.329 79.93 140.746 78.734C140.164 77.5073 139.872 76.02 139.872 74.272V62.542H136.79C136.269 62.542 135.87 62.4193 135.594 62.174C135.318 61.898 135.18 61.53 135.18 61.07C135.18 60.61 135.318 60.2573 135.594 60.012C135.87 59.7667 136.269 59.644 136.79 59.644H139.872V54.354C139.872 53.7407 140.041 53.2807 140.378 52.974C140.716 52.6367 141.176 52.468 141.758 52.468C142.341 52.468 142.786 52.6367 143.092 52.974C143.43 53.2807 143.598 53.7407 143.598 54.354V59.644H149.394C149.916 59.644 150.314 59.7667 150.59 60.012C150.866 60.2573 151.004 60.61 151.004 61.07C151.004 61.53 150.866 61.898 150.59 62.174C150.314 62.4193 149.916 62.542 149.394 62.542H143.598V73.904C143.598 75.652 143.966 76.986 144.702 77.906C145.438 78.7953 146.634 79.24 148.29 79.24C148.873 79.24 149.364 79.1787 149.762 79.056C150.192 78.9333 150.544 78.872 150.82 78.872C151.096 78.8413 151.326 78.9333 151.51 79.148C151.694 79.3627 151.786 79.7307 151.786 80.252C151.786 80.62 151.71 80.9573 151.556 81.264C151.434 81.5707 151.204 81.7853 150.866 81.908C150.498 82.0307 150.008 82.138 149.394 82.23C148.812 82.3527 148.275 82.414 147.784 82.414ZM161.934 82.414C160.401 82.414 159.021 82.1227 157.794 81.54C156.598 80.9267 155.648 80.0987 154.942 79.056C154.237 78.0133 153.884 76.848 153.884 75.56C153.884 73.904 154.298 72.6007 155.126 71.65C155.985 70.6993 157.38 70.0247 159.312 69.626C161.275 69.2273 163.943 69.028 167.316 69.028H169.386V71.466H167.362C164.878 71.466 162.916 71.5887 161.474 71.834C160.064 72.0487 159.067 72.432 158.484 72.984C157.932 73.536 157.656 74.318 157.656 75.33C157.656 76.5873 158.086 77.6147 158.944 78.412C159.834 79.2093 161.03 79.608 162.532 79.608C163.759 79.608 164.832 79.3167 165.752 78.734C166.703 78.1513 167.439 77.354 167.96 76.342C168.512 75.33 168.788 74.1647 168.788 72.846V67.602C168.788 65.7007 168.405 64.336 167.638 63.508C166.872 62.6493 165.614 62.22 163.866 62.22C162.793 62.22 161.72 62.358 160.646 62.634C159.573 62.91 158.438 63.3547 157.242 63.968C156.813 64.1827 156.445 64.2593 156.138 64.198C155.832 64.106 155.586 63.9373 155.402 63.692C155.218 63.4467 155.111 63.1707 155.08 62.864C155.05 62.5267 155.111 62.2047 155.264 61.898C155.448 61.5913 155.724 61.346 156.092 61.162C157.442 60.4873 158.776 59.9967 160.094 59.69C161.413 59.3833 162.67 59.23 163.866 59.23C165.798 59.23 167.393 59.552 168.65 60.196C169.908 60.8093 170.843 61.76 171.456 63.048C172.07 64.3053 172.376 65.9307 172.376 67.924V80.39C172.376 81.0033 172.223 81.4787 171.916 81.816C171.64 82.1533 171.226 82.322 170.674 82.322C170.092 82.322 169.647 82.1533 169.34 81.816C169.034 81.4787 168.88 81.0033 168.88 80.39V76.802H169.294C169.049 77.9673 168.574 78.964 167.868 79.792C167.194 80.62 166.35 81.264 165.338 81.724C164.326 82.184 163.192 82.414 161.934 82.414Z" fill="#4C5A81"/>
</svg>
