<svg width="56" height="64" viewBox="0 0 56 64" fill="none" xmlns="http://www.w3.org/2000/svg">
<mask id="mask0_48_1737" style="mask-type:alpha" maskUnits="userSpaceOnUse" x="0" y="0" width="56" height="64">
<path d="M30.6526 2.31147L27.2234 10.6174C26.3573 12.4706 29.2383 13.6633 29.9407 11.7383L33.3752 3.43134C34.2574 1.30723 31.3079 0.728019 30.6526 2.31147Z" fill="black"/>
<mask id="mask1_48_1737" style="mask-type:luminance" maskUnits="userSpaceOnUse" x="20" y="0" width="4" height="12">
<path d="M20.0181 0H23.3071V11.8925H20.0181V0Z" fill="white"/>
</mask>
<g mask="url(#mask1_48_1737)">
<path d="M21.654 -0.00855731C20.8435 0.00643126 20.1937 0.67557 20.2033 1.48924L20.199 10.2191C20.1412 11.0702 20.8179 11.7908 21.669 11.7908C22.5191 11.7908 23.1946 11.0702 23.1379 10.2191L23.1422 1.48924C23.1593 0.659511 22.4837 -0.0192637 21.654 -0.00855731Z" fill="black"/>
</g>
<path d="M39.2594 8.19237L33.1022 14.3699C31.7136 15.7595 33.8024 17.8333 35.1899 16.4458L41.3482 10.2662C42.8749 8.73731 40.5698 6.8755 39.2594 8.19237Z" fill="black"/>
<path d="M11.5356 11.1174C14.9027 15.3281 15.407 17.7927 15.4841 26.2474C15.5312 26.788 16.0569 27.1542 16.5783 27.0086L51.3574 18.5314C53.2385 18.0721 55.1977 19.2669 55.6527 20.8846C56.0703 22.3899 55.4879 24.1051 53.0897 24.802L23.3896 33.3638C21.5492 33.8584 20.1723 35.4162 19.7537 37.3744C19.3426 39.3143 19.8833 41.3282 21.2141 42.8003C21.8736 43.5304 22.6894 44.0668 23.5662 44.358C22.957 45.0496 22.5138 45.9126 22.3125 46.8783C21.895 48.8161 22.4367 50.8396 23.7675 52.3149C24.4013 53.0193 25.1807 53.5279 26.019 53.8277C25.5201 54.4069 25.1529 55.1178 24.9826 55.9122C24.6176 57.5748 25.0298 59.3639 26.2363 60.5694C26.6282 60.9601 26.6389 61.3317 25.9237 61.5233L23.8071 62.0939C18.5932 63.4997 13.6426 64.4878 9.47148 62.5725C5.02198 60.533 1.77264 55.6167 0.323017 50.0473C-0.444619 44.4244 0.198825 38.5724 1.79833 33.9077L5.31533 23.6522C6.60435 19.8997 5.99089 17.509 4.36033 13.1847C2.21159 7.47724 9.51859 8.59926 11.5356 11.1174Z" fill="black"/>
<path d="M39.6629 32.7738C40.6222 33.8241 41.1522 35.4151 40.7303 36.7705C40.2507 38.34 39.3931 39.1847 38.027 39.5509L25.9247 42.7938C24.7577 43.1011 23.4591 42.7007 22.5094 41.6407C21.5459 40.5733 21.1594 39.1376 21.457 37.7319C21.7568 36.3422 22.6743 35.354 23.8391 35.035L36.1695 31.6518C37.481 31.291 38.8985 31.942 39.6629 32.7738Z" fill="black"/>
<path d="M42.2153 42.2874C43.1746 43.3398 43.5804 44.888 43.286 46.2776C42.6939 47.8375 41.9049 48.6619 40.5441 49.073L28.4771 52.2977C27.3101 52.6104 26.0179 52.2132 25.0618 51.1586C24.0983 50.0933 23.7161 48.6416 24.0158 47.2358C24.3092 45.8462 25.2289 44.8676 26.3916 44.5486L38.8108 41.1408C40.0805 40.7896 41.4916 41.4962 42.2153 42.2874Z" fill="black"/>
<path d="M42.3642 51.6222C43.2399 52.4862 43.5451 53.9037 43.301 55.1081C43.0697 56.2398 42.3941 57.108 41.497 57.3479C37.7476 58.3307 30.2554 60.3017 30.2554 60.3017C29.3154 60.5479 28.2908 60.2428 27.5211 59.4056C26.7438 58.5523 26.428 57.4035 26.6753 56.274C26.9162 55.1702 27.6656 54.3822 28.5992 54.1328L40.0506 50.998C41.1779 50.6897 41.7197 50.9852 42.3642 51.6222Z" fill="black"/>
</mask>
<g mask="url(#mask0_48_1737)">
<path d="M55.6912 12.904C55.6912 29.533 39.8147 32.7508 40.7497 50.7107C41.6846 68.6705 -8.63215 31.2372 -8.63215 14.6082C-8.63215 -2.02076 8.95273 -17.2054 25.5817 -17.2054C42.2107 -17.2054 55.6912 -3.72497 55.6912 12.904Z" fill="#1881F5"/>
<path d="M28.2602 53.2009C28.2602 68.0203 11.6947 68.3688 -3.43396 68.3688C-18.5626 68.3688 -30.8268 56.6114 -30.8268 42.1079C-30.8268 27.6045 11.6197 12.4072 6.79161 27.2244C1.9635 42.0416 28.2602 38.3815 28.2602 53.2009Z" fill="#A989F5"/>
<path d="M75.3868 42.1079C75.3868 58.7369 53.5301 91.9131 36.9011 91.9131C20.2721 91.9131 6.79161 78.4326 6.79161 61.8036C6.79161 45.1746 15.8558 54.7885 20.7188 44.0907C25.5817 33.3929 75.3868 25.4789 75.3868 42.1079Z" fill="#6E60D8"/>
<path d="M83.3104 18.5637C83.3104 29.0662 68.3496 52.7481 56.5967 52.7481C44.8439 52.7481 36.9011 28.2556 47.5207 22.476C58.1404 16.6965 50.2772 -0.452808 62.03 -0.452808C73.7829 -0.452808 83.3104 8.06119 83.3104 18.5637Z" fill="#A989F5"/>
</g>
</svg>
