<svg width="43" height="43" viewBox="0 0 43 43" fill="none" xmlns="http://www.w3.org/2000/svg">
<path d="M21.7475 23.099C21.604 23.0785 21.4195 23.0785 21.2555 23.099C17.6475 22.976 14.7775 20.024 14.7775 16.3954C14.7775 12.6849 17.7705 9.67145 21.5015 9.67145C25.212 9.67145 28.2255 12.6849 28.2255 16.3954C28.205 20.024 25.3555 22.976 21.7475 23.099Z" stroke="white" stroke-linecap="round" stroke-linejoin="round"/>
<path d="M35.3166 36.6292C31.6676 39.9707 26.8296 42.0002 21.4996 42.0002C16.1695 42.0002 11.3315 39.9707 7.6825 36.6292C7.8875 34.7022 9.11749 32.8162 11.311 31.3402C16.928 27.6092 26.1121 27.6092 31.6881 31.3402C33.8816 32.8162 35.1116 34.7022 35.3166 36.6292Z" stroke="white" stroke-linecap="round" stroke-linejoin="round"/>
<path d="M21.5 42C32.8217 42 42 32.8217 42 21.5C42 10.1782 32.8217 1 21.5 1C10.1782 1 1 10.1782 1 21.5C1 32.8217 10.1782 42 21.5 42Z" stroke="white" stroke-width="2" stroke-linecap="round" stroke-linejoin="round"/>
</svg>
